<svg width="39" height="39" viewBox="0 0 39 39" fill="none" xmlns="http://www.w3.org/2000/svg">
<g clip-path="url(#clip0_26_221)">
<path d="M6.95093 20.2914L8.0507 20.2592C8.00944 18.8491 8.08017 17.1748 8.25539 15.4174L7.16054 15.3083C6.9808 17.1118 6.90831 18.8349 6.95093 20.2914Z" fill="#FFFBF5"/>
<path d="M2.66293 4.36729C2.52805 4.92558 2.53011 5.49578 2.53214 6.04738C2.53393 6.55896 2.53569 7.04216 2.43 7.47212C2.3241 7.90281 2.09831 8.33034 1.85929 8.7831C1.56396 9.34246 1.25855 9.92086 1.14471 10.5748C1.10213 10.8191 1.08554 11.0784 1.094 11.3674C1.10522 11.7509 1.15905 12.1311 1.211 12.4988C1.26109 12.8527 1.30837 13.1869 1.31783 13.5102C1.3223 13.6631 1.31791 13.8 1.30432 13.9292C1.25833 14.3688 1.0929 14.8228 0.917593 15.3034C0.700883 15.8976 0.476806 16.5123 0.452169 17.1768C0.449458 17.25 0.449204 17.3254 0.451418 17.401C0.468321 17.9787 0.624588 18.5323 0.77576 19.0676C0.914827 19.5603 1.04622 20.0258 1.06062 20.4707C1.07234 20.9158 0.968383 21.3881 0.858291 21.8881C0.738681 22.4314 0.615051 22.9932 0.631954 23.5709C0.634165 23.6464 0.638757 23.7217 0.645817 23.7948C0.709339 24.4566 0.968971 25.0571 1.22006 25.6377C1.42309 26.1072 1.61494 26.5508 1.68648 26.9871C1.70753 27.1151 1.71999 27.2517 1.72447 27.4046C1.73392 27.7278 1.70627 28.0642 1.67696 28.4205C1.6466 28.7905 1.61508 29.1731 1.62631 29.5567C1.63476 29.8457 1.66642 30.1036 1.72328 30.3449C1.87531 30.9912 2.21387 31.5507 2.5414 32.0918C2.80649 32.5297 3.05689 32.9434 3.18778 33.3671C3.31844 33.7901 3.34487 34.2726 3.37306 34.7834C3.40329 35.3341 3.43457 35.9035 3.60187 36.453L3.79519 37.088L8.33368 34.7127L8.90194 34.4142L20.7342 28.222L20.224 27.2472L8.37372 33.4487C8.36766 33.4323 8.36175 33.4158 8.35562 33.3994C8.26926 33.164 8.18476 32.9281 8.10276 32.6913C8.0977 32.6766 8.09278 32.6619 8.08765 32.6473C7.91427 32.1447 7.75057 31.639 7.59691 31.13C7.59563 31.1257 7.59427 31.1213 7.59291 31.117C7.51708 30.8656 7.44405 30.6135 7.37309 30.3606C7.36931 30.3475 7.36559 30.3342 7.36187 30.3211C7.29243 30.0728 7.22557 29.8238 7.16086 29.5742C7.15646 29.5574 7.15213 29.5406 7.14773 29.5237C7.08371 29.2753 7.02198 29.0261 6.96256 28.7764C6.95844 28.7594 6.9544 28.7424 6.95042 28.7254C6.89096 28.4744 6.83394 28.2226 6.77922 27.9704C6.77619 27.9559 6.77301 27.9415 6.76999 27.9271C6.71479 27.6711 6.6619 27.4146 6.61152 27.1574C6.60982 27.1487 6.60812 27.14 6.60641 27.1313C6.34693 25.801 6.15233 24.4544 6.02308 23.0949C6.02202 23.0834 6.02088 23.0719 6.01982 23.0605C5.99549 22.8029 5.97382 22.5447 5.95432 22.2862C5.95258 22.2639 5.95091 22.2415 5.94917 22.2191C5.93061 21.9685 5.91443 21.7174 5.90027 21.4659C5.89859 21.4357 5.89699 21.4055 5.8953 21.3752C5.88203 21.1294 5.87085 20.8833 5.86182 20.6368C5.85968 20.5783 5.85767 20.5197 5.85582 20.4612C5.85334 20.3865 5.85101 20.3119 5.84898 20.2373C5.84705 20.1666 5.84549 20.0959 5.84392 20.0251C5.84223 19.9499 5.84061 19.8747 5.83928 19.7996C5.83811 19.73 5.83724 19.6604 5.8365 19.5909C5.83558 19.5148 5.83458 19.4387 5.83417 19.3626C5.83367 19.2937 5.83368 19.2248 5.83355 19.1559C5.83335 19.0797 5.83329 19.0036 5.83352 18.9273C5.83374 18.8581 5.83439 18.7888 5.83504 18.7195C5.83572 18.644 5.83633 18.5684 5.83738 18.4929C5.83844 18.4227 5.8398 18.3527 5.84115 18.2826C5.84259 18.2082 5.84396 18.1338 5.84569 18.0594C5.8475 17.9876 5.8496 17.9159 5.85177 17.8442C5.85399 17.7717 5.85593 17.6992 5.85844 17.6266C5.86097 17.5523 5.86415 17.4781 5.86712 17.404C5.86993 17.3343 5.87252 17.2646 5.87563 17.1949C5.87908 17.1174 5.88311 17.0399 5.88707 16.9626C5.89041 16.8961 5.8936 16.8296 5.8973 16.7631C5.9018 16.6819 5.90695 16.6006 5.91189 16.5193C5.91571 16.457 5.91924 16.3947 5.92335 16.3323C5.92919 16.2447 5.93553 16.1571 5.94187 16.0695C5.94588 16.0138 5.94961 15.958 5.95384 15.9024C5.96129 15.8055 5.96931 15.7088 5.97742 15.6122C5.98127 15.5656 5.9849 15.5192 5.9889 15.4728C5.99836 15.3633 6.00862 15.2537 6.01903 15.1443C6.02224 15.1107 6.02502 15.0768 6.02838 15.0432C6.04144 14.9084 6.05538 14.7735 6.06975 14.6388C6.07067 14.6307 6.07137 14.6226 6.07237 14.6145C6.13476 14.0355 6.20937 13.4583 6.29613 12.8835C6.29692 12.878 6.29777 12.8726 6.2987 12.8671C6.31945 12.7302 6.34078 12.5934 6.36284 12.4568C6.36609 12.4369 6.36943 12.4172 6.37268 12.3974C6.39256 12.2753 6.41296 12.1534 6.43386 12.0314C6.43892 12.0017 6.44435 11.972 6.44956 11.9423C6.46916 11.8304 6.48891 11.7186 6.50931 11.607C6.51593 11.5708 6.52298 11.5347 6.52966 11.4985C6.54925 11.3934 6.56883 11.2883 6.58928 11.1834C6.59721 11.1425 6.60557 11.1017 6.61357 11.0608C6.6333 10.9609 6.65311 10.861 6.67371 10.7611C6.68281 10.7161 6.6925 10.6711 6.7019 10.6261C6.72176 10.5306 6.74185 10.4353 6.76244 10.3399C6.77288 10.2913 6.78384 10.2427 6.79458 10.194C6.81463 10.1027 6.83484 10.0114 6.85555 9.92032C6.86736 9.8685 6.87938 9.8169 6.89141 9.76516C6.91177 9.67704 6.93228 9.58886 6.95324 9.50087C6.96599 9.44708 6.97912 9.39334 6.99224 9.33954C7.0129 9.25403 7.03385 9.1685 7.05509 9.08312C7.06915 9.02682 7.08358 8.97052 7.09778 8.91422C7.11868 8.83174 7.13979 8.74918 7.16119 8.6669C7.17649 8.60833 7.19201 8.54989 7.2076 8.49138C7.22878 8.41135 7.25018 8.33124 7.27187 8.25127C7.28821 8.191 7.30497 8.13072 7.32167 8.07037C7.34313 7.99265 7.36482 7.91478 7.38672 7.83719C7.40431 7.77522 7.42204 7.71332 7.43999 7.65148C7.46188 7.57556 7.48383 7.49963 7.50623 7.42384C7.52486 7.36061 7.54379 7.29751 7.56272 7.23434C7.57591 7.19038 7.58924 7.14641 7.60265 7.10237L8.60057 7.55245C8.06581 9.36437 7.62806 11.5231 7.32905 13.8345L8.42014 13.9756C8.70392 11.7822 9.11419 9.73551 9.61338 8.0091L35.0586 19.4834L21.5239 26.5666L22.034 27.5414L37.5722 19.41L7.48743 5.84375L2.81924 3.71992L2.66293 4.36729ZM6.59156 6.64494C6.55672 6.75823 6.52277 6.87171 6.48895 6.98526C6.48204 7.00863 6.47469 7.03201 6.46784 7.05537C6.42541 7.19835 6.38393 7.34166 6.3431 7.48509C6.33339 7.51925 6.32404 7.55362 6.3144 7.58785C6.28371 7.6966 6.25316 7.80536 6.22341 7.91444C6.20967 7.9645 6.19653 8.01484 6.18308 8.06489C6.15794 8.15835 6.13274 8.25189 6.10819 8.34548C6.09373 8.40048 6.07978 8.45561 6.06561 8.51075C6.04266 8.59974 6.01978 8.68857 5.99749 8.77768C5.98297 8.83565 5.96889 8.89368 5.95473 8.95157C5.93351 9.0379 5.91229 9.12415 5.89166 9.21054C5.87733 9.27017 5.86344 9.32986 5.84948 9.38948C5.82946 9.47476 5.80966 9.56003 5.79008 9.64537C5.77635 9.70549 5.76298 9.76575 5.74948 9.82608C5.73054 9.91103 5.71167 9.99606 5.69317 10.0811C5.68003 10.1418 5.66711 10.2025 5.65427 10.2632C5.6362 10.3483 5.61828 10.4334 5.60079 10.5186C5.58837 10.579 5.57616 10.6393 5.56404 10.6999C5.54672 10.7858 5.52969 10.8717 5.51295 10.9577C5.5013 11.0174 5.48987 11.077 5.47852 11.1367C5.46183 11.2242 5.4455 11.312 5.42946 11.3996C5.41878 11.4577 5.40818 11.5159 5.39772 11.574C5.38166 11.6635 5.36597 11.7531 5.35057 11.8427C5.34079 11.8994 5.33101 11.956 5.32152 12.0127C5.30611 12.1045 5.29099 12.1964 5.27616 12.2883C5.26726 12.3429 5.25844 12.3974 5.24982 12.452C5.23501 12.5467 5.22048 12.6415 5.20617 12.7364C5.19836 12.7885 5.1904 12.8404 5.1828 12.8925C5.16832 12.9915 5.15429 13.0908 5.1404 13.1899C5.13376 13.2377 5.12698 13.2853 5.12048 13.3331C5.10607 13.4391 5.0923 13.5451 5.07868 13.6511C5.07337 13.6923 5.06792 13.7334 5.06268 13.7746C5.04807 13.8914 5.03411 14.0081 5.02045 14.1249C5.01686 14.1557 5.01305 14.1863 5.00947 14.2171C4.9936 14.3553 4.97861 14.4935 4.96413 14.6319C4.9631 14.6414 4.96207 14.6508 4.96097 14.6602C4.8984 15.2627 4.84863 15.8673 4.81179 16.4736C4.81054 16.4951 4.80936 16.5166 4.8081 16.5381C4.80062 16.6659 4.79343 16.7936 4.78704 16.9215C4.78525 16.9546 4.78398 16.9877 4.78234 17.0208C4.77677 17.1372 4.77149 17.2536 4.76679 17.3701C4.76514 17.41 4.76392 17.4502 4.76242 17.4902C4.75838 17.5997 4.75457 17.7093 4.75141 17.819C4.75012 17.8639 4.74905 17.909 4.74783 17.9539C4.7451 18.0586 4.74259 18.1632 4.74058 18.268C4.73963 18.317 4.73889 18.366 4.73815 18.415C4.73661 18.5156 4.73528 18.6161 4.73446 18.7166C4.73404 18.7693 4.7337 18.8219 4.7335 18.8745C4.73301 18.9715 4.73281 19.0685 4.73297 19.1656C4.73308 19.2213 4.73341 19.2771 4.7336 19.3328C4.73424 19.4265 4.73495 19.52 4.73617 19.6138C4.73682 19.6729 4.73775 19.7321 4.73869 19.7913C4.74015 19.8809 4.74197 19.9705 4.74395 20.0601C4.74536 20.1234 4.74686 20.1867 4.74856 20.2501C4.74945 20.2853 4.75004 20.3203 4.75107 20.3554C4.75253 20.4055 4.75457 20.4554 4.75618 20.5054C4.75753 20.5465 4.75844 20.5875 4.75993 20.6286C4.76085 20.655 4.7622 20.6814 4.76319 20.7079C4.76622 20.7893 4.76955 20.8708 4.77316 20.9522C4.77589 21.0157 4.77862 21.0792 4.78163 21.1427C4.78577 21.2322 4.79056 21.3216 4.79528 21.4111C4.7982 21.4666 4.80114 21.5224 4.80443 21.5779C4.81002 21.6748 4.81596 21.7717 4.82219 21.8684C4.8252 21.9168 4.82836 21.9653 4.83151 22.0137C4.8386 22.1173 4.84604 22.2209 4.85378 22.3243C4.85681 22.3661 4.85992 22.408 4.86309 22.4498C4.8716 22.56 4.88069 22.67 4.89006 22.7801C4.89297 22.8152 4.89595 22.8504 4.89901 22.8856C4.90922 23.0021 4.92001 23.1185 4.93116 23.2348C4.93389 23.2637 4.93662 23.2926 4.93941 23.3214C4.95141 23.4442 4.96405 23.567 4.97712 23.6896C4.97943 23.7119 4.98183 23.7343 4.98415 23.7567C4.99812 23.8855 5.01267 24.0141 5.02772 24.1426C5.02965 24.1592 5.03151 24.1757 5.03344 24.1922C5.04939 24.3264 5.06598 24.4605 5.08314 24.5944C5.08455 24.6054 5.08582 24.6165 5.08737 24.6276C5.10528 24.767 5.12397 24.9061 5.14332 25.0453C5.14406 25.051 5.14481 25.0567 5.14555 25.0624C5.16571 25.2069 5.18651 25.3512 5.2081 25.4953C5.20818 25.4958 5.20827 25.4964 5.20836 25.4969C5.53568 27.6832 6.03084 29.8318 6.69188 31.9298C6.69356 31.9353 6.69539 31.9407 6.69707 31.9462C6.73895 32.0787 6.78133 32.211 6.8245 32.3432C6.83659 32.3804 6.84919 32.4174 6.86142 32.4546C6.89447 32.555 6.92752 32.6554 6.96144 32.7555C6.97935 32.8085 6.99776 32.8613 7.01588 32.9143C7.0447 32.9985 7.07344 33.0827 7.10282 33.1668C7.12407 33.2274 7.14575 33.288 7.16736 33.3486C7.19442 33.4249 7.22127 33.5013 7.2489 33.5775C7.27214 33.642 7.2961 33.7063 7.31971 33.7708C7.34331 33.8352 7.36662 33.8997 7.39059 33.9641L4.5256 35.4638C4.49919 35.2265 4.48556 34.9784 4.47157 34.723C4.44108 34.1683 4.40953 33.5948 4.23896 33.0423C4.06817 32.4894 3.77045 31.9976 3.48262 31.5219C3.18628 31.0324 2.90637 30.57 2.79418 30.093C2.75458 29.9245 2.73227 29.7385 2.726 29.5243C2.71657 29.2021 2.74424 28.8662 2.77343 28.5105C2.80392 28.1399 2.83548 27.7566 2.82423 27.3722C2.81831 27.1697 2.80133 26.9854 2.77227 26.8086C2.67864 26.2384 2.45061 25.711 2.22996 25.2008C2.00263 24.6752 1.78802 24.1787 1.74099 23.6896C1.73631 23.6408 1.73323 23.59 1.73172 23.5385C1.71879 23.0968 1.82268 22.6244 1.93277 22.1246C2.05186 21.5834 2.17498 21.0239 2.16054 20.4461L2.16009 20.4309C2.1408 19.8532 1.98503 19.3018 1.83457 18.7686C1.6955 18.2759 1.56411 17.8105 1.55119 17.3689C1.54968 17.3174 1.54986 17.2665 1.55161 17.2176C1.56988 16.7263 1.75524 16.2182 1.95137 15.6802C2.14174 15.158 2.33855 14.6182 2.39876 14.0437C2.41735 13.8653 2.42359 13.6802 2.41767 13.4778C2.40642 13.0934 2.35257 12.7127 2.30039 12.3446C2.25046 11.9912 2.20319 11.6574 2.19377 11.3351C2.1875 11.121 2.19882 10.934 2.22858 10.7635C2.31268 10.2808 2.56508 9.80271 2.83229 9.29665C3.09181 8.80501 3.36026 8.29667 3.49843 7.73467C3.63641 7.17333 3.63444 6.59885 3.63237 6.04327C3.63143 5.7885 3.63048 5.54089 3.64286 5.30332L6.59156 6.64494Z" fill="#FFFBF5"/>
<path d="M7.88016 25.3049C7.94345 27.4678 9.75453 29.1759 11.9174 29.1126C14.0803 29.0493 15.7884 27.2382 15.7251 25.0753C15.6618 22.9125 13.8507 21.2044 11.6878 21.2676C9.52504 21.3309 7.81687 23.142 7.88016 25.3049ZM14.6254 25.1075C14.6709 26.6639 13.4417 27.9673 11.8852 28.0128C10.3288 28.0583 9.0254 26.8291 8.97986 25.2727C8.93432 23.7163 10.1636 22.4129 11.72 22.3673C13.2765 22.3218 14.5798 23.551 14.6254 25.1075Z" fill="#FFFBF5"/>
<path d="M20.853 19.8992C20.9032 21.6154 22.3403 22.9709 24.0565 22.9207C25.7728 22.8705 27.1282 21.4334 27.078 19.7171C27.0277 18.0008 25.5907 16.6455 23.8744 16.6957C22.1581 16.7459 20.8027 18.183 20.853 19.8992ZM25.9781 19.7493C26.0106 20.8591 25.1341 21.7884 24.0243 21.8209C22.9145 21.8534 21.9851 20.9769 21.9527 19.8671C21.9202 18.7572 22.7967 17.8279 23.9065 17.7954C25.0163 17.763 25.9456 18.6395 25.9781 19.7493Z" fill="#FFFBF5"/>
<path d="M15.1568 14.8708C14.5289 14.2982 13.5519 14.333 12.9666 14.9536C12.5331 15.4131 12.3047 16.0138 12.3231 16.6451C12.3416 17.2764 12.6049 17.8628 13.0643 18.2962L14.4791 19.6306C15.4277 20.5249 16.9272 20.481 17.8219 19.5325C18.1083 19.2288 18.2593 18.8317 18.2471 18.4144C18.2351 18.006 18.0682 17.6259 17.7764 17.3414L19.1356 15.9001L16.516 13.4297L15.1568 14.8708ZM17.5803 15.9456L16.2212 17.3867L17.0023 18.1233C17.0922 18.2081 17.1438 18.3229 17.1474 18.4466C17.151 18.5702 17.1063 18.6878 17.0216 18.7777C16.5431 19.2848 15.7412 19.3082 15.234 18.8299L13.8193 17.4956C13.5735 17.2638 13.4328 16.9503 13.4229 16.6128C13.413 16.2752 13.5352 15.9539 13.767 15.7084C13.9421 15.5226 14.2357 15.514 14.4215 15.6892L15.2027 16.4258L16.5615 14.9848L17.5803 15.9456Z" fill="#FFFBF5"/>
</g>
<defs>
<clipPath id="clip0_26_221">
<rect width="37.0462" height="37.0462" fill="white" transform="translate(1.0835 39) rotate(-91.6761)"/>
</clipPath>
</defs>
</svg>
